<?xml version="1.0" encoding="UTF-8"?>
<svg id="Layer_1" data-name="Layer 1" xmlns="http://www.w3.org/2000/svg" viewBox="0 0 16 16">
  <defs>
    <style>
      .cls-1 {
        fill: #169cd5;
        stroke-width: 0px;
      }
    </style>
  </defs>
  <rect class="cls-1" x="3.18" y="1.5" width="1.26" height="1.26" rx=".25" ry=".25"/>
  <rect class="cls-1" x="4.85" y="1.5" width="1.26" height="1.26" rx=".25" ry=".25"/>
  <rect class="cls-1" x="6.53" y="1.5" width="1.26" height="1.26" rx=".25" ry=".25"/>
  <rect class="cls-1" x="8.21" y="1.5" width="1.26" height="1.26" rx=".25" ry=".25"/>
  <rect class="cls-1" x="9.89" y="1.5" width="1.26" height="1.26" rx=".25" ry=".25"/>
  <rect class="cls-1" x="3.18" y="3.18" width="1.26" height="1.26" rx=".25" ry=".25"/>
  <rect class="cls-1" x="4.85" y="3.18" width="1.26" height="1.26" rx=".25" ry=".25"/>
  <rect class="cls-1" x="6.53" y="3.18" width="1.26" height="1.26" rx=".25" ry=".25"/>
  <rect class="cls-1" x="8.21" y="3.18" width="1.26" height="1.26" rx=".25" ry=".25"/>
  <rect class="cls-1" x="9.89" y="3.18" width="1.26" height="1.26" rx=".25" ry=".25"/>
  <rect class="cls-1" x="11.56" y="3.18" width="1.26" height="1.26" rx=".25" ry=".25"/>
  <rect class="cls-1" x="3.18" y="4.85" width="1.26" height="1.26" rx=".25" ry=".25"/>
  <rect class="cls-1" x="4.85" y="4.85" width="1.26" height="1.26" rx=".25" ry=".25"/>
  <rect class="cls-1" x="9.89" y="4.85" width="1.26" height="1.26" rx=".25" ry=".25"/>
  <rect class="cls-1" x="11.56" y="4.85" width="1.26" height="1.26" rx=".25" ry=".25"/>
  <rect class="cls-1" x="3.18" y="6.53" width="1.26" height="1.26" rx=".25" ry=".25"/>
  <rect class="cls-1" x="4.85" y="6.53" width="1.26" height="1.26" rx=".25" ry=".25"/>
  <rect class="cls-1" x="6.53" y="6.53" width="1.26" height="1.26" rx=".25" ry=".25"/>
  <rect class="cls-1" x="8.21" y="6.53" width="1.26" height="1.26" rx=".25" ry=".25"/>
  <rect class="cls-1" x="9.89" y="6.53" width="1.26" height="1.26" rx=".25" ry=".25"/>
  <rect class="cls-1" x="11.56" y="6.53" width="1.26" height="1.26" rx=".25" ry=".25"/>
  <rect class="cls-1" x="3.18" y="8.21" width="1.26" height="1.26" rx=".25" ry=".25"/>
  <rect class="cls-1" x="4.85" y="8.21" width="1.26" height="1.26" rx=".25" ry=".25"/>
  <rect class="cls-1" x="6.53" y="8.21" width="1.26" height="1.26" rx=".25" ry=".25"/>
  <rect class="cls-1" x="8.21" y="8.21" width="1.26" height="1.26" rx=".25" ry=".25"/>
  <rect class="cls-1" x="9.89" y="8.21" width="1.26" height="1.26" rx=".25" ry=".25"/>
  <rect class="cls-1" x="3.18" y="9.89" width="1.26" height="1.26" rx=".25" ry=".25"/>
  <rect class="cls-1" x="4.85" y="9.89" width="1.26" height="1.26" rx=".25" ry=".25"/>
  <rect class="cls-1" x="3.18" y="11.56" width="1.26" height="1.26" rx=".25" ry=".25"/>
  <rect class="cls-1" x="4.85" y="11.56" width="1.26" height="1.26" rx=".25" ry=".25"/>
  <rect class="cls-1" x="3.18" y="13.24" width="1.26" height="1.26" rx=".25" ry=".25"/>
  <rect class="cls-1" x="4.85" y="13.24" width="1.26" height="1.26" rx=".25" ry=".25"/>
</svg>