<svg width="287.216248" height="46.999863" viewBox="0 0 287.216 46.9999" fill="none" xmlns="http://www.w3.org/2000/svg" xmlns:xlink="http://www.w3.org/1999/xlink">
	<desc>
			Created with Pixso.
	</desc>
	<defs/>
	<path id="Полар Медиа" d="M74.71 36.99L74.71 36.53L76.57 36.06L76.57 16.23L74.71 15.76L74.71 15.3L95.33 15.3L95.33 15.76L93.46 16.23L93.46 36.06L95.33 36.53L95.33 36.99L86.49 36.99L86.49 36.53L88.35 36.06L88.35 16.07L81.68 16.07L81.68 36.06L83.54 36.53L83.54 36.99L74.71 36.99ZM186.3 19.17L186.3 35.6L188.79 36.53L188.79 36.99L182.9 36.99L182.9 36.53L185.38 35.6L185.38 16.23L183.21 15.76L183.21 15.3L187.39 15.3C188.47 15.3 189.32 15.52 189.95 15.96C190.58 16.41 191.13 17.06 191.58 17.93L198.34 30.86L203.52 17.93C203.86 17.02 204.34 16.36 204.94 15.93C205.54 15.51 206.46 15.3 207.7 15.3L210.95 15.3L210.95 15.76L209.09 16.23L209.09 36.06L210.95 36.53L210.95 36.99L202.11 36.99L202.11 36.53L203.98 36.06L203.98 19.17L196.7 37.31L195.77 37.31L186.3 19.17ZM106.33 37.46Q103.06 37.46 100.99 35.88L100.99 35.88Q100.62 35.6 100.29 35.28Q99.97 34.95 99.69 34.58Q98.11 32.51 98.11 29.24Q98.11 25.97 99.69 23.91Q99.97 23.55 100.29 23.22Q100.63 22.88 101.01 22.6Q103.07 21.03 106.33 21.03C108.89 21.03 110.9 21.76 112.36 23.22C113.82 24.67 114.55 26.68 114.55 29.24Q114.55 32.5 112.98 34.56L112.98 34.56Q112.69 34.94 112.36 35.28C110.9 36.73 108.89 37.46 106.33 37.46ZM142.45 37.46C140.6 37.46 139.19 37.07 138.19 36.28C137.2 35.5 136.71 34.49 136.71 33.27Q136.71 33.15 136.71 33.03L136.71 33.03Q136.76 31.95 137.23 30.89C137.38 30.51 137.56 30.17 137.79 29.87C138.64 29.66 139.56 29.47 140.55 29.31C142.78 28.93 144.76 28.71 146.47 28.62L146.47 27.69Q146.47 24.26 145.63 22.96C145.08 22.08 144.22 21.65 143.06 21.65Q142.41 21.65 141.95 21.81L141.52 21.96L141.52 26.61L141.11 26.7C140.78 26.74 140.5 26.76 140.27 26.76C139.57 26.76 139.01 26.55 138.59 26.13Q138.43 25.97 138.32 25.8Q137.95 25.24 137.95 24.44C137.95 23.49 138.43 22.69 139.39 22.02Q140.83 21.03 143.68 21.03C145.29 21.03 146.68 21.32 147.85 21.89C149.02 22.45 149.91 23.24 150.51 24.24C151.12 25.24 151.43 26.39 151.43 27.69L151.43 36.06L153.29 36.53L153.29 36.99L150.51 36.99Q149.07 36.99 148.14 36.31Q147.86 36.11 147.62 35.84C147.33 35.54 147.1 35.15 146.93 34.67C146.65 35.19 146.31 35.65 145.91 36.06C144.98 36.99 143.83 37.46 142.45 37.46ZM154.84 42.73L156.71 42.26L156.71 22.43L154.84 21.96L154.84 21.49L157.64 21.49C158.85 21.49 159.81 21.89 160.51 22.68C160.78 22.98 161.01 23.36 161.2 23.82Q161.55 23.11 162.08 22.57L162.08 22.57Q162.15 22.5 162.22 22.43C163.15 21.5 164.31 21.03 165.69 21.03C166.91 21.03 168 21.35 168.94 21.98C169.9 22.6 170.65 23.53 171.21 24.76Q172.05 26.61 172.05 29.24C172.05 31.89 171.43 33.92 170.2 35.34Q169.57 36.06 168.79 36.54Q167.29 37.46 165.23 37.46C164.23 37.46 163.37 37.25 162.62 36.84C162.32 36.7 162 36.49 161.66 36.22L161.66 42.26L163.52 42.73L163.52 43.19L154.84 43.19L154.84 42.73ZM222.11 37.46Q218.57 37.46 216.43 35.72Q216.18 35.51 215.94 35.28C214.48 33.82 213.74 31.81 213.74 29.24C213.74 27.57 214.06 26.11 214.71 24.88Q215.35 23.63 216.34 22.77Q216.82 22.35 217.38 22.02Q217.52 21.95 217.65 21.88L217.66 21.87Q219.28 21.03 221.34 21.03C222.82 21.03 224.13 21.31 225.26 21.87C226.39 22.43 227.25 23.18 227.86 24.11C228.47 25.05 228.77 26.09 228.77 27.23C228.77 27.75 228.72 28.19 228.62 28.56L228.46 29.09C227.58 29.28 226.62 29.43 225.59 29.56C223.41 29.86 221.22 30.02 219.01 30.02C219.01 32.42 219.34 34.13 220 35.16C220.66 36.18 221.57 36.68 222.74 36.68C223.54 36.68 224.28 36.49 224.98 36.11C225.67 35.73 226.22 35.22 226.63 34.6C227.03 33.97 227.23 33.32 227.23 32.66L228 32.66C228 33.48 227.75 34.27 227.25 35.01C226.76 35.75 226.07 36.35 225.18 36.79Q223.85 37.46 222.11 37.46ZM276.37 37.46C274.52 37.46 273.11 37.07 272.11 36.28C271.12 35.5 270.63 34.49 270.63 33.27Q270.63 33.15 270.63 33.03Q270.68 31.95 271.15 30.89C271.3 30.51 271.48 30.17 271.71 29.87C272.56 29.66 273.48 29.47 274.47 29.31C276.7 28.93 278.68 28.71 280.39 28.62L280.39 27.69Q280.39 24.26 279.55 22.96C279 22.08 278.14 21.65 276.98 21.65Q276.33 21.65 275.87 21.81L275.44 21.96L275.44 26.61L275.03 26.7C274.7 26.74 274.42 26.76 274.19 26.76C273.49 26.76 272.93 26.55 272.51 26.13Q272.35 25.97 272.24 25.8Q271.87 25.24 271.87 24.44C271.87 23.49 272.35 22.69 273.31 22.02Q274.75 21.03 277.6 21.03C279.21 21.03 280.6 21.32 281.77 21.89C282.94 22.45 283.83 23.24 284.43 24.24C285.04 25.24 285.35 26.39 285.35 27.69L285.35 36.06L287.21 36.53L287.21 36.99L284.43 36.99Q282.99 36.99 282.06 36.31L282.06 36.31Q281.78 36.11 281.54 35.84C281.25 35.54 281.02 35.15 280.85 34.67C280.57 35.19 280.23 35.65 279.83 36.06C278.9 36.99 277.75 37.46 276.37 37.46ZM118.42 37.46C117.49 37.46 116.76 37.21 116.24 36.71Q116.09 36.57 115.97 36.4Q115.47 35.71 115.47 34.67C115.47 33.99 115.7 33.41 116.17 32.92C116.63 32.43 117.18 32.19 117.8 32.19Q118.05 32.19 118.3 32.23Q118.55 32.28 118.64 32.28L119.04 32.35L119.04 36.53C119.53 36.31 119.97 35.85 120.34 35.17C120.71 34.48 120.95 33.34 121.05 31.73L121.67 22.58L119.51 21.96L119.51 21.49L133.92 21.49L133.92 21.96L132.05 22.43L132.05 36.06L133.92 36.53L133.92 36.99L125.24 36.99L125.24 36.53L127.1 36.06L127.1 22.27L122.6 22.27L121.98 31.73Q121.8 34.67 120.8 36.06Q120.07 37.09 119.13 37.36Q118.79 37.46 118.42 37.46ZM228.62 36.22L231.11 36.22C231.43 36 231.79 35.63 232.19 35.13C232.91 34.22 233.32 33.09 233.43 31.73L234.05 22.58L231.88 21.96L231.88 21.49L246.61 21.49L246.61 21.96L244.74 22.43L244.74 36.22L247.54 36.22L247.54 42.11L246.61 42.11C246.07 41.76 245.62 41.33 245.27 40.84C244.41 39.72 243.97 38.44 243.97 36.99L232.19 36.99C232.19 38.42 231.74 39.7 230.86 40.84C230.5 41.33 230.07 41.76 229.55 42.11L228.62 42.11L228.62 36.22ZM249.24 36.99L249.24 36.53L251.1 36.06L251.1 22.43L249.24 21.96L249.24 21.49L257.92 21.49L257.92 21.96L256.06 22.43L256.06 32.66L261.01 24.13L261.01 22.43L259.16 21.96L259.16 21.49L267.83 21.49L267.83 21.96L265.98 22.43L265.98 36.06L267.83 36.53L267.83 36.99L259.16 36.99L259.16 36.53L261.01 36.06L261.01 25.83L256.06 34.36L256.06 36.06L257.92 36.53L257.92 36.99L249.24 36.99ZM106.33 36.84Q106.52 36.84 106.7 36.8L106.7 36.8Q107.7 36.58 108.41 35.11C108.98 33.95 109.27 31.99 109.27 29.24C109.27 26.5 108.98 24.54 108.41 23.39Q107.7 21.91 106.7 21.69Q106.52 21.65 106.33 21.65C105.5 21.65 104.8 22.23 104.23 23.39Q103.38 25.12 103.38 29.24C103.38 31.99 103.66 33.95 104.23 35.11C104.8 36.27 105.5 36.84 106.33 36.84ZM219.01 29.24C220.33 29.24 221.41 29.19 222.24 29.09C222.59 29.07 222.96 29.02 223.36 28.93C223.38 28.83 223.43 28.61 223.51 28.25Q223.67 27.48 223.67 26.61C223.67 24.9 223.44 23.64 222.98 22.84C222.52 22.04 221.98 21.65 221.34 21.65C219.79 21.65 219.01 24.18 219.01 29.24ZM163.99 36.53C164.87 36.53 165.56 36.02 166.05 34.98C166.53 33.95 166.78 32.04 166.78 29.24C166.78 26.58 166.56 24.73 166.11 23.68Q165.53 22.31 164.7 22.14Q164.58 22.12 164.46 22.12Q164.24 22.12 164.03 22.16Q163.1 22.34 162.34 23.36Q161.94 23.88 161.66 24.6L161.66 35.29C161.95 35.58 162.18 35.79 162.34 35.91C162.9 36.33 163.45 36.53 163.99 36.53ZM239.79 36.22L239.79 22.27L234.98 22.27L234.36 31.73Q234.23 33.37 233.48 34.67Q233.34 34.91 233.18 35.13C232.87 35.57 232.54 35.93 232.19 36.22L239.79 36.22ZM143.68 36.37C144.45 36.37 145.14 35.96 145.76 35.13C145.99 34.83 146.23 34.41 146.47 33.89L146.47 29.4Q145.05 29.4 143.75 29.56C143.11 29.64 142.67 29.69 142.45 29.71C142.34 29.93 142.24 30.24 142.14 30.64C141.93 31.42 141.83 32.2 141.83 32.97C141.83 34.12 142 34.98 142.35 35.54C142.7 36.1 143.14 36.37 143.68 36.37ZM277.6 36.37C278.37 36.37 279.06 35.96 279.68 35.13C279.91 34.83 280.15 34.41 280.39 33.89L280.39 29.4Q278.97 29.4 277.67 29.56C277.03 29.64 276.59 29.69 276.37 29.71C276.26 29.93 276.16 30.24 276.06 30.64C275.85 31.42 275.75 32.2 275.75 32.97C275.75 34.12 275.92 34.98 276.27 35.54C276.62 36.1 277.07 36.37 277.6 36.37Z" fill="#FFFFFF" fill-opacity="1.000000" fill-rule="evenodd"/>
	<path id="Union" d="M28.61 5.03L29.57 0.61C29.75 -0.21 30.91 -0.21 31.09 0.61L32.05 5.03C32.06 5.09 32.06 5.15 32.06 5.2C32.06 5.25 32.06 5.3 32.05 5.35C32.48 5.35 32.89 5.69 32.89 6.12C32.99 6.11 33.09 6.16 33.19 6.18L37.62 7.12C38.04 7.21 38.24 7.55 38.24 7.88C38.24 8.22 38.04 8.56 37.62 8.65L33.19 9.59C33.09 9.61 32.99 9.61 32.89 9.59C32.89 10.02 32.54 10.42 32.11 10.42L31.09 14.94C30.91 15.76 29.75 15.76 29.57 14.94L28.61 10.51C28.18 10.51 27.77 10.07 27.77 9.64C27.67 9.66 27.57 9.61 27.47 9.59L23.03 8.65C22.62 8.56 22.42 8.22 22.42 7.88C22.42 7.55 22.62 7.21 23.03 7.12L27.47 6.18C27.57 6.16 27.67 6.16 27.77 6.17C27.77 5.74 28.11 5.35 28.54 5.35C28.54 5.3 28.59 5.25 28.59 5.2C28.59 5.15 28.6 5.09 28.61 5.03ZM3.88 6.45L16.33 6.45C17.19 6.45 17.88 7.15 17.88 8.01C17.88 8.87 17.19 9.57 16.33 9.57L7 9.57C4.85 9.57 3.11 11.32 3.11 13.47L3.11 39.98C3.11 42.13 4.85 43.88 7 43.88L29.63 43.88C29.58 43.62 29.55 43.36 29.55 43.1L29.55 34.52C29.55 32.37 31.29 30.62 33.44 30.62L41.22 30.62L41.22 28.28L38.88 28.28C38.01 28.28 37.33 27.6 37.33 26.72C37.33 25.85 38.01 25.16 38.88 25.16L41.22 25.16L41.22 22.82L38.88 22.82C38.01 22.82 37.33 22.14 37.33 21.27C37.33 20.39 38.01 19.71 38.88 19.71L41.22 19.71L41.22 16.59C41.22 15.71 41.9 15.03 42.77 15.03C43.64 15.03 44.33 15.71 44.33 16.59L44.33 19.71L46.66 19.71C47.53 19.71 48.22 20.39 48.22 21.27C48.22 22.14 47.53 22.82 46.66 22.82L44.33 22.82L44.33 25.16L46.66 25.16C47.53 25.16 48.22 25.85 48.22 26.72C48.22 27.6 47.53 28.28 46.66 28.28L44.33 28.28L44.33 30.62L52.11 30.62C52.37 30.62 52.63 30.65 52.88 30.7L52.88 13.47C52.88 11.32 51.14 9.57 49 9.57L44.33 9.57C43.47 9.57 42.77 8.87 42.77 8.01C42.77 7.15 43.47 6.45 44.33 6.45L52.11 6.45C54.25 6.45 56 8.2 56 10.35L56 43.1C56 45.25 54.25 46.99 52.11 46.99L3.88 46.99C1.74 46.99 0 45.25 0 43.1L0 10.35C0 8.2 1.74 6.45 3.88 6.45ZM49 43.88C51.15 43.87 52.88 42.13 52.88 39.98L52.88 34.52C52.88 34.09 52.54 33.74 52.11 33.74L33.44 33.74C33.01 33.74 32.66 34.09 32.66 34.52L32.66 43.1C32.66 43.53 33.01 43.88 33.44 43.88L49 43.88ZM13.77 16.59L13.77 31.4C13.77 32.27 13.09 32.96 12.22 32.96C11.35 32.96 10.66 32.27 10.66 31.4L10.66 16.59C10.66 15.71 11.35 15.03 12.22 15.03C13.09 15.03 13.77 15.71 13.77 16.59ZM9.11 18.93L9.11 27.5C9.11 28.38 8.42 29.06 7.55 29.06C6.68 29.06 6 28.38 6 27.5L6 18.93C6 18.05 6.68 17.37 7.55 17.37C8.42 17.37 9.11 18.05 9.11 18.93ZM18.44 18.93L18.44 36.08C18.44 36.95 17.76 37.64 16.88 37.64C16.01 37.64 15.33 36.95 15.33 36.08L15.33 18.93C15.33 18.05 16.01 17.37 16.88 17.37C17.76 17.37 18.44 18.05 18.44 18.93ZM34 18.93L34 26.72C34 27.6 33.31 28.28 32.44 28.28C31.57 28.28 30.88 27.6 30.88 26.72L30.88 18.93C30.88 18.05 31.57 17.37 32.44 17.37C33.31 17.37 34 18.05 34 18.93ZM28.55 20.49L28.55 29.84C28.55 30.72 27.87 31.4 27 31.4C26.12 31.4 25.44 30.72 25.44 29.84L25.44 20.49C25.44 19.61 26.12 18.93 27 18.93C27.87 18.93 28.55 19.61 28.55 20.49ZM23.11 25.16L23.11 33.74C23.11 34.61 22.42 35.3 21.55 35.3C20.68 35.3 20 34.61 20 33.74L20 25.16C20 24.29 20.68 23.6 21.55 23.6C22.42 23.6 23.11 24.29 23.11 25.16ZM41.22 37.64L41.22 40.76C41.22 41.19 40.87 41.54 40.44 41.54L37.33 41.54C36.9 41.54 36.55 41.19 36.55 40.76L36.55 37.64C36.55 37.21 36.9 36.86 37.33 36.86L40.44 36.86C40.87 36.86 41.22 37.21 41.22 37.64ZM49 37.64L49 40.76C49 41.19 48.65 41.54 48.22 41.54L45.11 41.54C44.68 41.54 44.33 41.19 44.33 40.76L44.33 37.64C44.33 37.21 44.68 36.86 45.11 36.86L48.22 36.86C48.65 36.86 49 37.21 49 37.64Z" fill="#FFFFFF" fill-opacity="1.000000" fill-rule="evenodd"/>
</svg>
