<?xml version="1.0" encoding="UTF-8"?>
<svg id="Layer_2" data-name="Layer 2" xmlns="http://www.w3.org/2000/svg" viewBox="0 0 812.5 93.5">
  <defs>
    <style>
      .cls-1 {
        fill: #169cd5;
        stroke-width: 0px;
      }
    </style>
  </defs>
  <g id="Layer_1-2" data-name="Layer 1">
    <rect class="cls-1" x="0" width="9" height="9" rx="1.8" ry="1.8"/>
    <rect class="cls-1" x="12" width="9" height="9" rx="1.8" ry="1.8"/>
    <rect class="cls-1" x="24" width="9" height="9" rx="1.8" ry="1.8"/>
    <rect class="cls-1" x="36" width="9" height="9" rx="1.8" ry="1.8"/>
    <rect class="cls-1" x="48" width="9" height="9" rx="1.8" ry="1.8"/>
    <rect class="cls-1" x="0" y="12" width="9" height="9" rx="1.8" ry="1.8"/>
    <rect class="cls-1" x="12" y="12" width="9" height="9" rx="1.8" ry="1.8"/>
    <rect class="cls-1" x="24" y="12" width="9" height="9" rx="1.8" ry="1.8"/>
    <rect class="cls-1" x="36" y="12" width="9" height="9" rx="1.8" ry="1.8"/>
    <rect class="cls-1" x="48" y="12" width="9" height="9" rx="1.8" ry="1.8"/>
    <rect class="cls-1" x="60" y="12" width="9" height="9" rx="1.8" ry="1.8"/>
    <rect class="cls-1" x="0" y="24" width="9" height="9" rx="1.8" ry="1.8"/>
    <rect class="cls-1" x="12" y="24" width="9" height="9" rx="1.8" ry="1.8"/>
    <rect class="cls-1" x="48" y="24" width="9" height="9" rx="1.8" ry="1.8"/>
    <rect class="cls-1" x="60" y="24" width="9" height="9" rx="1.8" ry="1.8"/>
    <rect class="cls-1" x="0" y="36" width="9" height="9" rx="1.8" ry="1.8"/>
    <rect class="cls-1" x="12" y="36" width="9" height="9" rx="1.8" ry="1.8"/>
    <rect class="cls-1" x="24" y="36" width="9" height="9" rx="1.8" ry="1.8"/>
    <rect class="cls-1" x="36" y="36" width="9" height="9" rx="1.8" ry="1.8"/>
    <rect class="cls-1" x="48" y="36" width="9" height="9" rx="1.8" ry="1.8"/>
    <rect class="cls-1" x="60" y="36" width="9" height="9" rx="1.8" ry="1.8"/>
    <rect class="cls-1" x="0" y="48" width="9" height="9" rx="1.8" ry="1.8"/>
    <rect class="cls-1" x="12" y="48" width="9" height="9" rx="1.8" ry="1.8"/>
    <rect class="cls-1" x="24" y="48" width="9" height="9" rx="1.8" ry="1.8"/>
    <rect class="cls-1" x="36" y="48" width="9" height="9" rx="1.8" ry="1.8"/>
    <rect class="cls-1" x="48" y="48" width="9" height="9" rx="1.8" ry="1.8"/>
    <rect class="cls-1" x="0" y="60" width="9" height="9" rx="1.8" ry="1.8"/>
    <rect class="cls-1" x="12" y="60" width="9" height="9" rx="1.8" ry="1.8"/>
    <rect class="cls-1" x="0" y="72" width="9" height="9" rx="1.8" ry="1.8"/>
    <rect class="cls-1" x="12" y="72" width="9" height="9" rx="1.8" ry="1.8"/>
    <rect class="cls-1" x="0" y="84" width="9" height="9" rx="1.8" ry="1.8"/>
    <rect class="cls-1" x="12" y="84" width="9" height="9" rx="1.8" ry="1.8"/>
    <rect class="cls-1" x="93" width="9" height="9" rx="1.8" ry="1.8"/>
    <rect class="cls-1" x="105" width="9" height="9" rx="1.8" ry="1.8"/>
    <rect class="cls-1" x="117" width="9" height="9" rx="1.8" ry="1.8"/>
    <rect class="cls-1" x="129" width="9" height="9" rx="1.8" ry="1.8"/>
    <rect class="cls-1" x="81" y="12" width="9" height="9" rx="1.8" ry="1.8"/>
    <rect class="cls-1" x="93" y="12" width="9" height="9" rx="1.8" ry="1.8"/>
    <rect class="cls-1" x="105" y="12" width="9" height="9" rx="1.8" ry="1.8"/>
    <rect class="cls-1" x="117" y="12" width="9" height="9" rx="1.8" ry="1.8"/>
    <rect class="cls-1" x="129" y="12" width="9" height="9" rx="1.8" ry="1.8"/>
    <rect class="cls-1" x="141" y="12" width="9" height="9" rx="1.8" ry="1.8"/>
    <rect class="cls-1" x="81" y="24" width="9" height="9" rx="1.8" ry="1.8"/>
    <rect class="cls-1" x="93" y="24" width="9" height="9" rx="1.8" ry="1.8"/>
    <rect class="cls-1" x="129" y="24" width="9" height="9" rx="1.8" ry="1.8"/>
    <rect class="cls-1" x="141" y="24" width="9" height="9" rx="1.8" ry="1.8"/>
    <rect class="cls-1" x="81" y="36" width="9" height="9" rx="1.8" ry="1.8"/>
    <rect class="cls-1" x="93" y="36" width="9" height="9" rx="1.8" ry="1.8"/>
    <rect class="cls-1" x="129" y="36" width="9" height="9" rx="1.8" ry="1.8"/>
    <rect class="cls-1" x="141" y="36" width="9" height="9" rx="1.8" ry="1.8"/>
    <rect class="cls-1" x="81" y="48" width="9" height="9" rx="1.8" ry="1.8"/>
    <rect class="cls-1" x="93" y="48" width="9" height="9" rx="1.8" ry="1.8"/>
    <rect class="cls-1" x="129" y="48" width="9" height="9" rx="1.8" ry="1.8"/>
    <rect class="cls-1" x="141" y="48" width="9" height="9" rx="1.8" ry="1.8"/>
    <rect class="cls-1" x="81" y="60" width="9" height="9" rx="1.8" ry="1.8"/>
    <rect class="cls-1" x="93" y="60" width="9" height="9" rx="1.8" ry="1.8"/>
    <rect class="cls-1" x="129" y="60" width="9" height="9" rx="1.8" ry="1.8"/>
    <rect class="cls-1" x="141" y="60" width="9" height="9" rx="1.8" ry="1.8"/>
    <rect class="cls-1" x="81" y="72" width="9" height="9" rx="1.8" ry="1.8"/>
    <rect class="cls-1" x="93" y="72" width="9" height="9" rx="1.8" ry="1.8"/>
    <rect class="cls-1" x="105" y="72" width="9" height="9" rx="1.8" ry="1.8"/>
    <rect class="cls-1" x="117" y="72" width="9" height="9" rx="1.8" ry="1.8"/>
    <rect class="cls-1" x="129" y="72" width="9" height="9" rx="1.8" ry="1.8"/>
    <rect class="cls-1" x="141" y="72" width="9" height="9" rx="1.8" ry="1.8"/>
    <rect class="cls-1" x="93" y="84" width="9" height="9" rx="1.8" ry="1.8"/>
    <rect class="cls-1" x="105" y="84" width="9" height="9" rx="1.8" ry="1.8"/>
    <rect class="cls-1" x="117" y="84" width="9" height="9" rx="1.8" ry="1.8"/>
    <rect class="cls-1" x="129" y="84" width="9" height="9" rx="1.8" ry="1.8"/>
    <rect class="cls-1" x="708.5" y=".5" width="9" height="9" rx="2" ry="2"/>
    <rect class="cls-1" x="720.5" y=".5" width="9" height="9" rx="2" ry="2"/>
    <rect class="cls-1" x="708.5" y="12.5" width="9" height="9" rx="2" ry="2"/>
    <rect class="cls-1" x="720.5" y="12.5" width="9" height="9" rx="2" ry="2"/>
    <rect class="cls-1" x="708.5" y="24.5" width="9" height="9" rx="2" ry="2"/>
    <rect class="cls-1" x="720.5" y="24.5" width="9" height="9" rx="2" ry="2"/>
    <rect class="cls-1" x="708.5" y="36.5" width="9" height="9" rx="2" ry="2"/>
    <rect class="cls-1" x="720.5" y="36.5" width="9" height="9" rx="2" ry="2"/>
    <rect class="cls-1" x="708.5" y="48.5" width="9" height="9" rx="2" ry="2"/>
    <rect class="cls-1" x="720.5" y="48.5" width="9" height="9" rx="2" ry="2"/>
    <rect class="cls-1" x="708.5" y="60.5" width="9" height="9" rx="2" ry="2"/>
    <rect class="cls-1" x="720.5" y="60.5" width="9" height="9" rx="2" ry="2"/>
    <rect class="cls-1" x="708.5" y="72.5" width="9" height="9" rx="2" ry="2"/>
    <rect class="cls-1" x="720.5" y="72.5" width="9" height="9" rx="2" ry="2"/>
    <rect class="cls-1" x="708.5" y="84.5" width="9" height="9" rx="2" ry="2"/>
    <rect class="cls-1" x="720.5" y="84.5" width="9" height="9" rx="2" ry="2"/>
    <rect class="cls-1" x="444.5" y=".5" width="9" height="9" rx="2" ry="2"/>
    <rect class="cls-1" x="456.5" y=".5" width="9" height="9" rx="2" ry="2"/>
    <rect class="cls-1" x="444.5" y="12.5" width="9" height="9" rx="2" ry="2"/>
    <rect class="cls-1" x="456.5" y="12.5" width="9" height="9" rx="2" ry="2"/>
    <rect class="cls-1" x="468.5" y="12.5" width="9" height="9" rx="2" ry="2"/>
    <rect class="cls-1" x="504.5" y="12.5" width="9" height="9" rx="2" ry="2"/>
    <rect class="cls-1" x="444.5" y="24.5" width="9" height="9" rx="2" ry="2"/>
    <rect class="cls-1" x="456.5" y="24.5" width="9" height="9" rx="2" ry="2"/>
    <rect class="cls-1" x="468.5" y="24.5" width="9" height="9" rx="2" ry="2"/>
    <rect class="cls-1" x="480.5" y="24.5" width="9" height="9" rx="2" ry="2"/>
    <rect class="cls-1" x="492.5" y="24.5" width="9" height="9" rx="2" ry="2"/>
    <rect class="cls-1" x="504.5" y="24.5" width="9" height="9" rx="2" ry="2"/>
    <rect class="cls-1" x="444.5" y="36.5" width="9" height="9" rx="2" ry="2"/>
    <rect class="cls-1" x="456.5" y="36.5" width="9" height="9" rx="2" ry="2"/>
    <rect class="cls-1" x="480.5" y="36.5" width="9" height="9" rx="2" ry="2"/>
    <rect class="cls-1" x="492.5" y="36.5" width="9" height="9" rx="2" ry="2"/>
    <rect class="cls-1" x="480.5" y="48.5" width="9" height="9" rx="2" ry="2"/>
    <rect class="cls-1" x="492.5" y="48.5" width="9" height="9" rx="2" ry="2"/>
    <rect class="cls-1" x="444.5" y="48.5" width="9" height="9" rx="2" ry="2"/>
    <rect class="cls-1" x="456.5" y="48.5" width="9" height="9" rx="2" ry="2"/>
    <rect class="cls-1" x="444.5" y="60.5" width="9" height="9" rx="2" ry="2"/>
    <rect class="cls-1" x="456.5" y="60.5" width="9" height="9" rx="2" ry="2"/>
    <rect class="cls-1" x="444.5" y="72.5" width="9" height="9" rx="2" ry="2"/>
    <rect class="cls-1" x="456.5" y="72.5" width="9" height="9" rx="2" ry="2"/>
    <rect class="cls-1" x="444.5" y="84.5" width="9" height="9" rx="2" ry="2"/>
    <rect class="cls-1" x="456.5" y="84.5" width="9" height="9" rx="2" ry="2"/>
    <rect class="cls-1" x="516.5" y=".5" width="9" height="9" rx="2" ry="2"/>
    <rect class="cls-1" x="528.5" y=".5" width="9" height="9" rx="2" ry="2"/>
    <rect class="cls-1" x="516.5" y="12.5" width="9" height="9" rx="2" ry="2"/>
    <rect class="cls-1" x="528.5" y="12.5" width="9" height="9" rx="2" ry="2"/>
    <rect class="cls-1" x="516.5" y="24.5" width="9" height="9" rx="2" ry="2"/>
    <rect class="cls-1" x="528.5" y="24.5" width="9" height="9" rx="2" ry="2"/>
    <rect class="cls-1" x="516.5" y="36.5" width="9" height="9" rx="2" ry="2"/>
    <rect class="cls-1" x="528.5" y="36.5" width="9" height="9" rx="2" ry="2"/>
    <rect class="cls-1" x="516.5" y="48.5" width="9" height="9" rx="2" ry="2"/>
    <rect class="cls-1" x="528.5" y="48.5" width="9" height="9" rx="2" ry="2"/>
    <rect class="cls-1" x="516.5" y="60.5" width="9" height="9" rx="2" ry="2"/>
    <rect class="cls-1" x="528.5" y="60.5" width="9" height="9" rx="2" ry="2"/>
    <rect class="cls-1" x="516.5" y="72.5" width="9" height="9" rx="2" ry="2"/>
    <rect class="cls-1" x="528.5" y="72.5" width="9" height="9" rx="2" ry="2"/>
    <rect class="cls-1" x="516.5" y="84.5" width="9" height="9" rx="2" ry="2"/>
    <rect class="cls-1" x="528.5" y="84.5" width="9" height="9" rx="2" ry="2"/>
    <rect class="cls-1" x="628.5" y=".5" width="9" height="9" rx="2" ry="2"/>
    <rect class="cls-1" x="640.5" y=".5" width="9" height="9" rx="2" ry="2"/>
    <rect class="cls-1" x="652.5" y=".5" width="9" height="9" rx="2" ry="2"/>
    <rect class="cls-1" x="664.5" y=".5" width="9" height="9" rx="2" ry="2"/>
    <rect class="cls-1" x="676.5" y=".5" width="9" height="9" rx="2" ry="2"/>
    <rect class="cls-1" x="628.5" y="12.5" width="9" height="9" rx="2" ry="2"/>
    <rect class="cls-1" x="640.5" y="12.5" width="9" height="9" rx="2" ry="2"/>
    <rect class="cls-1" x="652.5" y="12.5" width="9" height="9" rx="2" ry="2"/>
    <rect class="cls-1" x="664.5" y="12.5" width="9" height="9" rx="2" ry="2"/>
    <rect class="cls-1" x="676.5" y="12.5" width="9" height="9" rx="2" ry="2"/>
    <rect class="cls-1" x="688.5" y="12.5" width="9" height="9" rx="2" ry="2"/>
    <rect class="cls-1" x="628.5" y="24.5" width="9" height="9" rx="2" ry="2"/>
    <rect class="cls-1" x="640.5" y="24.5" width="9" height="9" rx="2" ry="2"/>
    <rect class="cls-1" x="676.5" y="24.5" width="9" height="9" rx="2" ry="2"/>
    <rect class="cls-1" x="688.5" y="24.5" width="9" height="9" rx="2" ry="2"/>
    <rect class="cls-1" x="628.5" y="36.5" width="9" height="9" rx="2" ry="2"/>
    <rect class="cls-1" x="640.5" y="36.5" width="9" height="9" rx="2" ry="2"/>
    <rect class="cls-1" x="676.5" y="36.5" width="9" height="9" rx="2" ry="2"/>
    <rect class="cls-1" x="688.5" y="36.5" width="9" height="9" rx="2" ry="2"/>
    <rect class="cls-1" x="628.5" y="48.5" width="9" height="9" rx="2" ry="2"/>
    <rect class="cls-1" x="640.5" y="48.5" width="9" height="9" rx="2" ry="2"/>
    <rect class="cls-1" x="676.5" y="48.5" width="9" height="9" rx="2" ry="2"/>
    <rect class="cls-1" x="688.5" y="48.5" width="9" height="9" rx="2" ry="2"/>
    <rect class="cls-1" x="628.5" y="60.5" width="9" height="9" rx="2" ry="2"/>
    <rect class="cls-1" x="640.5" y="60.5" width="9" height="9" rx="2" ry="2"/>
    <rect class="cls-1" x="676.5" y="60.5" width="9" height="9" rx="2" ry="2"/>
    <rect class="cls-1" x="688.5" y="60.5" width="9" height="9" rx="2" ry="2"/>
    <rect class="cls-1" x="628.5" y="72.5" width="9" height="9" rx="2" ry="2"/>
    <rect class="cls-1" x="640.5" y="72.5" width="9" height="9" rx="2" ry="2"/>
    <rect class="cls-1" x="652.5" y="72.5" width="9" height="9" rx="2" ry="2"/>
    <rect class="cls-1" x="664.5" y="72.5" width="9" height="9" rx="2" ry="2"/>
    <rect class="cls-1" x="676.5" y="72.5" width="9" height="9" rx="2" ry="2"/>
    <rect class="cls-1" x="688.5" y="72.5" width="9" height="9" rx="2" ry="2"/>
    <rect class="cls-1" x="628.5" y="84.5" width="9" height="9" rx="2" ry="2"/>
    <rect class="cls-1" x="640.5" y="84.5" width="9" height="9" rx="2" ry="2"/>
    <rect class="cls-1" x="652.5" y="84.5" width="9" height="9" rx="2" ry="2"/>
    <rect class="cls-1" x="664.5" y="84.5" width="9" height="9" rx="2" ry="2"/>
    <rect class="cls-1" x="676.5" y="84.5" width="9" height="9" rx="2" ry="2"/>
    <rect class="cls-1" x="548.5" y=".5" width="9" height="9" rx="2" ry="2"/>
    <rect class="cls-1" x="560.5" y=".5" width="9" height="9" rx="2" ry="2"/>
    <rect class="cls-1" x="572.5" y=".5" width="9" height="9" rx="2" ry="2"/>
    <rect class="cls-1" x="584.5" y=".5" width="9" height="9" rx="2" ry="2"/>
    <rect class="cls-1" x="596.5" y=".5" width="9" height="9" rx="2" ry="2"/>
    <rect class="cls-1" x="608.5" y=".5" width="9" height="9" rx="2" ry="2"/>
    <rect class="cls-1" x="548.5" y="12.5" width="9" height="9" rx="2" ry="2"/>
    <rect class="cls-1" x="560.5" y="12.5" width="9" height="9" rx="2" ry="2"/>
    <rect class="cls-1" x="572.5" y="12.5" width="9" height="9" rx="2" ry="2"/>
    <rect class="cls-1" x="584.5" y="12.5" width="9" height="9" rx="2" ry="2"/>
    <rect class="cls-1" x="596.5" y="12.5" width="9" height="9" rx="2" ry="2"/>
    <rect class="cls-1" x="608.5" y="12.5" width="9" height="9" rx="2" ry="2"/>
    <rect class="cls-1" x="548.5" y="24.5" width="9" height="9" rx="2" ry="2"/>
    <rect class="cls-1" x="560.5" y="24.5" width="9" height="9" rx="2" ry="2"/>
    <rect class="cls-1" x="548.5" y="36.5" width="9" height="9" rx="2" ry="2"/>
    <rect class="cls-1" x="560.5" y="36.5" width="9" height="9" rx="2" ry="2"/>
    <rect class="cls-1" x="572.5" y="36.5" width="9" height="9" rx="2" ry="2"/>
    <rect class="cls-1" x="584.5" y="36.5" width="9" height="9" rx="2" ry="2"/>
    <rect class="cls-1" x="596.5" y="36.5" width="9" height="9" rx="2" ry="2"/>
    <rect class="cls-1" x="548.5" y="48.5" width="9" height="9" rx="2" ry="2"/>
    <rect class="cls-1" x="560.5" y="48.5" width="9" height="9" rx="2" ry="2"/>
    <rect class="cls-1" x="572.5" y="48.5" width="9" height="9" rx="2" ry="2"/>
    <rect class="cls-1" x="584.5" y="48.5" width="9" height="9" rx="2" ry="2"/>
    <rect class="cls-1" x="596.5" y="48.5" width="9" height="9" rx="2" ry="2"/>
    <rect class="cls-1" x="548.5" y="60.5" width="9" height="9" rx="2" ry="2"/>
    <rect class="cls-1" x="560.5" y="60.5" width="9" height="9" rx="2" ry="2"/>
    <rect class="cls-1" x="548.5" y="72.5" width="9" height="9" rx="2" ry="2"/>
    <rect class="cls-1" x="560.5" y="72.5" width="9" height="9" rx="2" ry="2"/>
    <rect class="cls-1" x="572.5" y="72.5" width="9" height="9" rx="2" ry="2"/>
    <rect class="cls-1" x="584.5" y="72.5" width="9" height="9" rx="2" ry="2"/>
    <rect class="cls-1" x="596.5" y="72.5" width="9" height="9" rx="2" ry="2"/>
    <rect class="cls-1" x="608.5" y="72.5" width="9" height="9" rx="2" ry="2"/>
    <rect class="cls-1" x="548.5" y="84.5" width="9" height="9" rx="2" ry="2"/>
    <rect class="cls-1" x="560.5" y="84.5" width="9" height="9" rx="2" ry="2"/>
    <rect class="cls-1" x="572.5" y="84.5" width="9" height="9" rx="2" ry="2"/>
    <rect class="cls-1" x="584.5" y="84.5" width="9" height="9" rx="2" ry="2"/>
    <rect class="cls-1" x="596.5" y="84.5" width="9" height="9" rx="2" ry="2"/>
    <rect class="cls-1" x="608.5" y="84.5" width="9" height="9" rx="2" ry="2"/>
    <rect class="cls-1" x="325" width="9" height="9" rx="1.8" ry="1.8"/>
    <rect class="cls-1" x="337" width="9" height="9" rx="1.8" ry="1.8"/>
    <rect class="cls-1" x="349" width="9" height="9" rx="1.8" ry="1.8"/>
    <rect class="cls-1" x="361" width="9" height="9" rx="1.8" ry="1.8"/>
    <rect class="cls-1" x="373" width="9" height="9" rx="1.8" ry="1.8"/>
    <rect class="cls-1" x="325" y="12" width="9" height="9" rx="1.8" ry="1.8"/>
    <rect class="cls-1" x="337" y="12" width="9" height="9" rx="1.8" ry="1.8"/>
    <rect class="cls-1" x="349" y="12" width="9" height="9" rx="1.8" ry="1.8"/>
    <rect class="cls-1" x="361" y="12" width="9" height="9" rx="1.8" ry="1.8"/>
    <rect class="cls-1" x="373" y="12" width="9" height="9" rx="1.8" ry="1.8"/>
    <rect class="cls-1" x="385" y="12" width="9" height="9" rx="1.8" ry="1.8"/>
    <rect class="cls-1" x="325" y="24" width="9" height="9" rx="1.8" ry="1.8"/>
    <rect class="cls-1" x="337" y="24" width="9" height="9" rx="1.8" ry="1.8"/>
    <rect class="cls-1" x="373" y="24" width="9" height="9" rx="1.8" ry="1.8"/>
    <rect class="cls-1" x="385" y="24" width="9" height="9" rx="1.8" ry="1.8"/>
    <rect class="cls-1" x="325" y="36" width="9" height="9" rx="1.8" ry="1.8"/>
    <rect class="cls-1" x="337" y="36" width="9" height="9" rx="1.8" ry="1.8"/>
    <rect class="cls-1" x="349" y="36" width="9" height="9" rx="1.8" ry="1.8"/>
    <rect class="cls-1" x="361" y="36" width="9" height="9" rx="1.8" ry="1.8"/>
    <rect class="cls-1" x="373" y="36" width="9" height="9" rx="1.8" ry="1.8"/>
    <rect class="cls-1" x="385" y="36" width="9" height="9" rx="1.8" ry="1.8"/>
    <rect class="cls-1" x="325" y="48" width="9" height="9" rx="1.8" ry="1.8"/>
    <rect class="cls-1" x="337" y="48" width="9" height="9" rx="1.8" ry="1.8"/>
    <rect class="cls-1" x="349" y="48" width="9" height="9" rx="1.8" ry="1.8"/>
    <rect class="cls-1" x="361" y="48" width="9" height="9" rx="1.8" ry="1.8"/>
    <rect class="cls-1" x="325" y="60" width="9" height="9" rx="1.8" ry="1.8"/>
    <rect class="cls-1" x="337" y="60" width="9" height="9" rx="1.8" ry="1.8"/>
    <rect class="cls-1" x="361" y="60" width="9" height="9" rx="1.8" ry="1.8"/>
    <rect class="cls-1" x="373" y="60" width="9" height="9" rx="1.8" ry="1.8"/>
    <rect class="cls-1" x="325" y="72" width="9" height="9" rx="1.8" ry="1.8"/>
    <rect class="cls-1" x="337" y="72" width="9" height="9" rx="1.8" ry="1.8"/>
    <rect class="cls-1" x="373" y="72" width="9" height="9" rx="1.8" ry="1.8"/>
    <rect class="cls-1" x="385" y="72" width="9" height="9" rx="1.8" ry="1.8"/>
    <rect class="cls-1" x="325" y="84" width="9" height="9" rx="1.8" ry="1.8"/>
    <rect class="cls-1" x="337" y="84" width="9" height="9" rx="1.8" ry="1.8"/>
    <rect class="cls-1" x="373" y="84" width="9" height="9" rx="1.8" ry="1.8"/>
    <rect class="cls-1" x="385" y="84" width="9" height="9" rx="1.8" ry="1.8"/>
    <rect class="cls-1" x="268" width="9" height="9" rx="1.8" ry="1.8"/>
    <rect class="cls-1" x="280" width="9" height="9" rx="1.8" ry="1.8"/>
    <rect class="cls-1" x="256" y="12" width="9" height="9" rx="1.8" ry="1.8"/>
    <rect class="cls-1" x="268" y="12" width="9" height="9" rx="1.8" ry="1.8"/>
    <rect class="cls-1" x="280" y="12" width="9" height="9" rx="1.8" ry="1.8"/>
    <rect class="cls-1" x="292" y="12" width="9" height="9" rx="1.8" ry="1.8"/>
    <rect class="cls-1" x="244" y="24" width="9" height="9" rx="1.8" ry="1.8"/>
    <rect class="cls-1" x="256" y="24" width="9" height="9" rx="1.8" ry="1.8"/>
    <rect class="cls-1" x="268" y="24" width="9" height="9" rx="1.8" ry="1.8"/>
    <rect class="cls-1" x="280" y="24" width="9" height="9" rx="1.8" ry="1.8"/>
    <rect class="cls-1" x="268" y="48" width="9" height="9" rx="1.8" ry="1.8"/>
    <rect class="cls-1" x="280" y="48" width="9" height="9" rx="1.8" ry="1.8"/>
    <rect class="cls-1" x="292" y="24" width="9" height="9" rx="1.8" ry="1.8"/>
    <rect class="cls-1" x="304" y="24" width="9" height="9" rx="1.8" ry="1.8"/>
    <rect class="cls-1" x="244" y="36" width="9" height="9" rx="1.8" ry="1.8"/>
    <rect class="cls-1" x="256" y="36" width="9" height="9" rx="1.8" ry="1.8"/>
    <rect class="cls-1" x="292" y="36" width="9" height="9" rx="1.8" ry="1.8"/>
    <rect class="cls-1" x="304" y="36" width="9" height="9" rx="1.8" ry="1.8"/>
    <rect class="cls-1" x="244" y="48" width="9" height="9" rx="1.8" ry="1.8"/>
    <rect class="cls-1" x="256" y="48" width="9" height="9" rx="1.8" ry="1.8"/>
    <rect class="cls-1" x="292" y="48" width="9" height="9" rx="1.8" ry="1.8"/>
    <rect class="cls-1" x="304" y="48" width="9" height="9" rx="1.8" ry="1.8"/>
    <rect class="cls-1" x="244" y="60" width="9" height="9" rx="1.8" ry="1.8"/>
    <rect class="cls-1" x="256" y="60" width="9" height="9" rx="1.8" ry="1.8"/>
    <rect class="cls-1" x="268" y="60" width="9" height="9" rx="1.8" ry="1.8"/>
    <rect class="cls-1" x="280" y="60" width="9" height="9" rx="1.8" ry="1.8"/>
    <rect class="cls-1" x="292" y="60" width="9" height="9" rx="1.8" ry="1.8"/>
    <rect class="cls-1" x="304" y="60" width="9" height="9" rx="1.8" ry="1.8"/>
    <rect class="cls-1" x="244" y="72" width="9" height="9" rx="1.8" ry="1.8"/>
    <rect class="cls-1" x="256" y="72" width="9" height="9" rx="1.8" ry="1.8"/>
    <rect class="cls-1" x="292" y="72" width="9" height="9" rx="1.8" ry="1.8"/>
    <rect class="cls-1" x="304" y="72" width="9" height="9" rx="1.8" ry="1.8"/>
    <rect class="cls-1" x="244" y="84" width="9" height="9" rx="1.8" ry="1.8"/>
    <rect class="cls-1" x="256" y="84" width="9" height="9" rx="1.8" ry="1.8"/>
    <rect class="cls-1" x="292" y="84" width="9" height="9" rx="1.8" ry="1.8"/>
    <rect class="cls-1" x="304" y="84" width="9" height="9" rx="1.8" ry="1.8"/>
    <rect class="cls-1" x="767.5" y=".5" width="9" height="9" rx="1.8" ry="1.8"/>
    <rect class="cls-1" x="779.5" y=".5" width="9" height="9" rx="1.8" ry="1.8"/>
    <rect class="cls-1" x="755.5" y="12.5" width="9" height="9" rx="1.8" ry="1.8"/>
    <rect class="cls-1" x="767.5" y="12.5" width="9" height="9" rx="1.8" ry="1.8"/>
    <rect class="cls-1" x="779.5" y="12.5" width="9" height="9" rx="1.8" ry="1.8"/>
    <rect class="cls-1" x="791.5" y="12.5" width="9" height="9" rx="1.8" ry="1.8"/>
    <rect class="cls-1" x="743.5" y="24.5" width="9" height="9" rx="1.8" ry="1.8"/>
    <rect class="cls-1" x="755.5" y="24.5" width="9" height="9" rx="1.8" ry="1.8"/>
    <rect class="cls-1" x="767.5" y="24.5" width="9" height="9" rx="1.8" ry="1.8"/>
    <rect class="cls-1" x="779.5" y="24.5" width="9" height="9" rx="1.8" ry="1.8"/>
    <rect class="cls-1" x="767.5" y="48.5" width="9" height="9" rx="1.8" ry="1.8"/>
    <rect class="cls-1" x="779.5" y="48.5" width="9" height="9" rx="1.8" ry="1.8"/>
    <rect class="cls-1" x="791.5" y="24.5" width="9" height="9" rx="1.8" ry="1.8"/>
    <rect class="cls-1" x="803.5" y="24.5" width="9" height="9" rx="1.8" ry="1.8"/>
    <rect class="cls-1" x="743.5" y="36.5" width="9" height="9" rx="1.8" ry="1.8"/>
    <rect class="cls-1" x="755.5" y="36.5" width="9" height="9" rx="1.8" ry="1.8"/>
    <rect class="cls-1" x="791.5" y="36.5" width="9" height="9" rx="1.8" ry="1.8"/>
    <rect class="cls-1" x="803.5" y="36.5" width="9" height="9" rx="1.8" ry="1.8"/>
    <rect class="cls-1" x="743.5" y="48.5" width="9" height="9" rx="1.8" ry="1.8"/>
    <rect class="cls-1" x="755.5" y="48.5" width="9" height="9" rx="1.8" ry="1.8"/>
    <rect class="cls-1" x="791.5" y="48.5" width="9" height="9" rx="1.8" ry="1.8"/>
    <rect class="cls-1" x="803.5" y="48.5" width="9" height="9" rx="1.8" ry="1.8"/>
    <rect class="cls-1" x="743.5" y="60.5" width="9" height="9" rx="1.8" ry="1.8"/>
    <rect class="cls-1" x="755.5" y="60.5" width="9" height="9" rx="1.8" ry="1.8"/>
    <rect class="cls-1" x="767.5" y="60.5" width="9" height="9" rx="1.8" ry="1.8"/>
    <rect class="cls-1" x="779.5" y="60.5" width="9" height="9" rx="1.8" ry="1.8"/>
    <rect class="cls-1" x="791.5" y="60.5" width="9" height="9" rx="1.8" ry="1.8"/>
    <rect class="cls-1" x="803.5" y="60.5" width="9" height="9" rx="1.8" ry="1.8"/>
    <rect class="cls-1" x="743.5" y="72.5" width="9" height="9" rx="1.8" ry="1.8"/>
    <rect class="cls-1" x="755.5" y="72.5" width="9" height="9" rx="1.8" ry="1.8"/>
    <rect class="cls-1" x="791.5" y="72.5" width="9" height="9" rx="1.8" ry="1.8"/>
    <rect class="cls-1" x="803.5" y="72.5" width="9" height="9" rx="1.8" ry="1.8"/>
    <rect class="cls-1" x="743.5" y="84.5" width="9" height="9" rx="1.8" ry="1.8"/>
    <rect class="cls-1" x="755.5" y="84.5" width="9" height="9" rx="1.8" ry="1.8"/>
    <rect class="cls-1" x="791.5" y="84.5" width="9" height="9" rx="1.8" ry="1.8"/>
    <rect class="cls-1" x="803.5" y="84.5" width="9" height="9" rx="1.8" ry="1.8"/>
    <rect class="cls-1" x="162" width="9" height="9" rx="1.8" ry="1.8"/>
    <rect class="cls-1" x="174" width="9" height="9" rx="1.8" ry="1.8"/>
    <rect class="cls-1" x="162" y="12" width="9" height="9" rx="1.8" ry="1.8"/>
    <rect class="cls-1" x="174" y="12" width="9" height="9" rx="1.8" ry="1.8"/>
    <rect class="cls-1" x="162" y="24" width="9" height="9" rx="1.8" ry="1.8"/>
    <rect class="cls-1" x="174" y="24" width="9" height="9" rx="1.8" ry="1.8"/>
    <rect class="cls-1" x="162" y="36" width="9" height="9" rx="1.8" ry="1.8"/>
    <rect class="cls-1" x="174" y="36" width="9" height="9" rx="1.8" ry="1.8"/>
    <rect class="cls-1" x="162" y="48" width="9" height="9" rx="1.8" ry="1.8"/>
    <rect class="cls-1" x="174" y="48" width="9" height="9" rx="1.8" ry="1.8"/>
    <rect class="cls-1" x="162" y="60" width="9" height="9" rx="1.8" ry="1.8"/>
    <rect class="cls-1" x="174" y="60" width="9" height="9" rx="1.8" ry="1.8"/>
    <rect class="cls-1" x="162" y="72" width="9" height="9" rx="1.8" ry="1.8"/>
    <rect class="cls-1" x="174" y="72" width="9" height="9" rx="1.8" ry="1.8"/>
    <rect class="cls-1" x="186" y="72" width="9" height="9" rx="1.8" ry="1.8"/>
    <rect class="cls-1" x="198" y="72" width="9" height="9" rx="1.8" ry="1.8"/>
    <rect class="cls-1" x="210" y="72" width="9" height="9" rx="1.8" ry="1.8"/>
    <rect class="cls-1" x="222" y="72" width="9" height="9" rx="1.8" ry="1.8"/>
    <rect class="cls-1" x="162" y="84" width="9" height="9" rx="1.8" ry="1.8"/>
    <rect class="cls-1" x="174" y="84" width="9" height="9" rx="1.8" ry="1.8"/>
    <rect class="cls-1" x="186" y="84" width="9" height="9" rx="1.8" ry="1.8"/>
    <rect class="cls-1" x="198" y="84" width="9" height="9" rx="1.8" ry="1.8"/>
    <rect class="cls-1" x="210" y="84" width="9" height="9" rx="1.8" ry="1.8"/>
    <rect class="cls-1" x="222" y="84" width="9" height="9" rx="1.8" ry="1.8"/>
  </g>
</svg>